<?xml version="1.0" encoding="UTF-8" standalone="no"?>
<svg width="351px" height="59px" viewBox="0 0 351 59" version="1.1" xmlns="http://www.w3.org/2000/svg" xmlns:xlink="http://www.w3.org/1999/xlink">
    <!-- Generator: Sketch 45.1 (43504) - http://www.bohemiancoding.com/sketch -->
    <title>Hey, it’s me.</title>
    <desc>Created with Sketch.</desc>
    <defs></defs>
    <g id="v4" stroke="none" stroke-width="1" fill="none" fill-rule="evenodd">
        <g id="Home" transform="translate(-1085.000000, -156.000000)" fill="#FFFFFF">
            <g id="Logo" transform="translate(1085.000000, 156.000000)">
                <path d="M29.048,46 L40.056,46 L40.056,3.312 L29.048,3.312 L29.048,19.248 L11.32,19.248 L11.32,3.312 L0.312,3.312 L0.312,46 L11.32,46 L11.32,28.848 L29.048,28.848 L29.048,46 Z M45.432,30.512 C45.432,21.552 52.216,14.32 61.88,14.32 C71.032,14.32 77.688,21.04 77.688,31.536 L77.688,33.648 L55.672,33.648 C56.248,36.528 58.936,39.152 63.544,39.152 C66.296,39.152 69.368,38.064 71.096,36.528 L75.256,42.672 C72.184,45.424 67.064,46.768 62.328,46.768 C52.792,46.768 45.432,40.56 45.432,30.512 Z M61.88,21.936 C57.592,21.936 55.928,25.008 55.544,27.248 L68.28,27.248 C68.024,25.072 66.424,21.936 61.88,21.936 Z M83.32,49.264 C84.024,49.648 84.984,49.84 85.752,49.84 C87.992,49.84 89.4,49.392 89.912,48.112 L90.616,46.448 L78.328,15.088 L88.696,15.088 L95.672,34.672 L102.712,15.088 L113.144,15.088 L99.192,50.416 C96.696,56.944 92.024,58.416 86.136,58.544 C85.24,58.544 82.936,58.352 81.912,58.032 L83.32,49.264 Z M116.856,55.088 L112.76,51.76 C114.808,50.736 117.496,48.176 118.2,45.808 C117.88,45.936 117.304,46.064 116.728,46.064 C113.976,46.064 111.736,43.76 111.736,40.624 C111.736,37.36 114.424,34.736 117.624,34.736 C121.08,34.736 124.152,37.424 124.152,42.096 C124.152,47.344 121.336,51.952 116.856,55.088 Z M151.224,11.952 C154.36,11.952 156.856,9.456 156.856,6.32 C156.856,3.184 154.36,0.688 151.224,0.688 C148.088,0.688 145.592,3.184 145.592,6.32 C145.592,9.456 148.088,11.952 151.224,11.952 Z M146.296,46 L156.152,46 L156.152,15.088 L146.296,15.088 L146.296,46 Z M175.032,46.768 C178.68,46.768 181.112,45.872 182.328,44.72 L180.408,37.296 C180.088,37.68 179,38.064 177.912,38.064 C176.184,38.064 175.16,36.72 175.16,34.928 L175.16,23.664 L181.432,23.664 L181.432,15.088 L175.16,15.088 L175.16,6.64 L165.368,6.64 L165.368,15.088 L160.248,15.088 L160.248,23.664 L165.368,23.664 L165.368,37.68 C165.368,43.632 168.76,46.768 175.032,46.768 Z M190.456,23.088 C194.936,19.888 197.752,15.28 197.752,10.096 C197.752,5.36 194.68,2.672 191.224,2.672 C188.024,2.672 185.336,5.296 185.336,8.56 C185.336,11.76 187.576,13.872 190.328,13.872 C190.904,13.872 191.48,13.744 191.8,13.616 C191.096,15.984 188.408,18.736 186.36,19.76 L190.456,23.088 Z M198.904,42.032 C202.168,44.912 207.864,46.768 213.368,46.768 C222.264,46.768 227.448,42.416 227.448,36.528 C227.448,28.336 219.64,27.056 214.392,26.16 C211.128,25.584 209.464,25.072 209.464,23.664 C209.464,22.32 211.064,21.552 213.368,21.552 C217.08,21.552 220.6,23.152 222.456,24.944 L226.232,18.416 C222.904,15.984 218.488,14.32 213.304,14.32 C204.728,14.32 200.056,19.056 200.056,24.496 C200.056,32.368 207.48,33.456 212.728,34.352 C215.928,34.864 218.04,35.44 218.04,37.04 C218.04,38.384 216.824,39.344 213.88,39.344 C210.232,39.344 205.304,37.296 203,35.248 L198.904,42.032 Z M287.864,46 L297.656,46 L297.656,23.6 C297.656,17.264 294.072,14.32 288.376,14.32 C283.512,14.32 279.48,17.136 277.688,19.824 C276.408,16.176 273.336,14.32 268.92,14.32 C264.056,14.32 260.088,17.072 258.744,18.864 L258.744,15.088 L248.888,15.088 L248.888,46 L258.744,46 L258.744,26.032 C259.768,24.752 261.624,23.024 264.248,23.024 C267.256,23.024 268.344,24.816 268.344,27.184 L268.344,46 L278.2,46 L278.2,26.032 C279.16,24.752 281.08,23.024 283.768,23.024 C286.712,23.024 287.864,24.816 287.864,27.184 L287.864,46 Z M302.84,30.512 C302.84,21.552 309.624,14.32 319.288,14.32 C328.44,14.32 335.096,21.04 335.096,31.536 L335.096,33.648 L313.08,33.648 C313.656,36.528 316.344,39.152 320.952,39.152 C323.704,39.152 326.776,38.064 328.504,36.528 L332.664,42.672 C329.592,45.424 324.472,46.768 319.736,46.768 C310.2,46.768 302.84,40.56 302.84,30.512 Z M319.288,21.936 C315,21.936 313.336,25.008 312.952,27.248 L325.688,27.248 C325.432,25.072 323.832,21.936 319.288,21.936 Z M338.808,40.752 C338.808,44.016 341.56,46.768 344.824,46.768 C348.088,46.768 350.84,44.016 350.84,40.752 C350.84,37.488 348.088,34.736 344.824,34.736 C341.56,34.736 338.808,37.488 338.808,40.752 Z" id="Hey,-it’s-me."></path>
            </g>
        </g>
    </g>
</svg>