<?xml version="1.0" encoding="UTF-8" standalone="no"?>
<svg width="80px" height="80px" viewBox="0 0 80 80" version="1.1" xmlns="http://www.w3.org/2000/svg" xmlns:xlink="http://www.w3.org/1999/xlink">
    <!-- Generator: Sketch 45.1 (43504) - http://www.bohemiancoding.com/sketch -->
    <title>Play Button</title>
    <desc>Created with Sketch.</desc>
    <defs></defs>
    <g id="v4" stroke="none" stroke-width="1" fill="none" fill-rule="evenodd">
        <g id="Home" transform="translate(-1081.000000, -499.000000)">
            <g id="Info" transform="translate(1000.000000, 355.000000)">
                <g id="Example" transform="translate(81.000000, 144.000000)">
                    <g id="Play-Button">
                        <circle id="Oval" fill="#FFFFFF" cx="39.6055328" cy="39.6055328" r="39.6055328"></circle>
                        <path d="M29.3885668,59.1746983 L59.6129637,42.0738428 L59.6129637,42.0738428 C60.5743223,41.5299096 60.9127124,40.3096294 60.3687792,39.3482708 C60.1900764,39.0324279 59.9288066,38.7711581 59.6129637,38.5924553 L29.3885668,21.4915998 L29.3885668,21.4915998 C28.4272082,20.9476666 27.206928,21.2860567 26.6629948,22.2474153 C26.4930203,22.5478317 26.4036885,22.887125 26.4036885,23.2322936 L26.4036885,57.4340046 L26.4036885,57.4340046 C26.4036885,58.5385741 27.299119,59.4340046 28.4036885,59.4340046 C28.7488571,59.4340046 29.0881504,59.3446728 29.3885668,59.1746983 Z" id="Path-2" fill="#60A8FF"></path>
                    </g>
                </g>
            </g>
        </g>
    </g>
</svg>